<?xml version="1.0" standalone="no"?>
<!DOCTYPE svg PUBLIC "-//W3C//DTD SVG 20010904//EN"
 "http://www.w3.org/TR/2001/REC-SVG-20010904/DTD/svg10.dtd">
<svg version="1.0" xmlns="http://www.w3.org/2000/svg"
 width="600.000000pt" height="300.000000pt" viewBox="0 0 600.000000 300.000000"
 preserveAspectRatio="xMidYMid meet">

<g transform="translate(0.000000,300.000000) scale(0.100000,-0.100000)"
fill="#000000" stroke="none">
<path d="M5 2987 c-3 -6 -4 -680 -3 -1497 l3 -1485 2998 -3 2997 -2 0 1500 0
1500 -2995 0 c-2384 0 -2997 -3 -3000 -13z m2905 -1487 l0 -1410 -1410 0
-1410 0 0 1410 0 1410 1410 0 1410 0 0 -1410z"/>
<path d="M610 2100 l0 -120 211 0 210 0 -3 -362 c-3 -324 -5 -367 -21 -403
-66 -147 -244 -185 -428 -92 l-66 34 -56 -92 c-32 -51 -57 -97 -57 -103 0 -16
148 -89 220 -107 87 -23 272 -24 358 -2 196 51 316 176 356 370 13 63 16 156
16 537 l0 460 -370 0 -370 0 0 -120z"/>
<path d="M1632 1463 l3 -438 30 -54 c58 -105 147 -148 285 -138 98 7 177 37
239 93 l50 45 6 -38 c4 -21 7 -45 8 -53 2 -12 26 -15 135 -18 l132 -3 0 521 0
520 -150 0 -150 0 0 -363 0 -362 -30 -37 c-36 -44 -103 -78 -154 -78 -28 0
-45 7 -67 29 l-29 29 0 391 0 391 -155 0 -156 0 3 -437z"/>
</g>
</svg>
